<svg xmlns="http://www.w3.org/2000/svg" viewBox="0 0 160 160" width="640" height="640" shape-rendering="crispEdges" style="image-rendering:pixelated">
<defs>
  <filter id="ga"><feGaussianBlur stdDeviation="1.5" result="b"/><feMerge><feMergeNode in="b"/><feMergeNode in="SourceGraphic"/></feMerge></filter>
  <filter id="gp"><feGaussianBlur stdDeviation="2" result="b"/><feMerge><feMergeNode in="b"/><feMergeNode in="SourceGraphic"/></feMerge></filter>
  <filter id="gc"><feGaussianBlur stdDeviation="1" result="b"/><feMerge><feMergeNode in="b"/><feMergeNode in="SourceGraphic"/></feMerge></filter>
  <radialGradient id="lanternGlow" cx="50%" cy="50%" r="50%">
    <stop offset="0%" stop-color="#fbbf24" stop-opacity="0.4"/>
    <stop offset="100%" stop-color="#fbbf24" stop-opacity="0"/>
  </radialGradient>
</defs>

<!-- BG -->
<rect width="160" height="160" fill="#07000f"/>
<!-- Deep purple sky gradient blocks -->
<rect x="0" y="0" width="160" height="60" fill="#0e001f"/>
<rect x="0" y="0" width="160" height="30" fill="#150030" opacity="0.6"/>

<!-- Scanlines (every other row, subtle) -->
<rect x="0" y="1"  width="160" height="1" fill="#000" opacity="0.25"/>
<rect x="0" y="3"  width="160" height="1" fill="#000" opacity="0.25"/>
<rect x="0" y="5"  width="160" height="1" fill="#000" opacity="0.25"/>
<rect x="0" y="7"  width="160" height="1" fill="#000" opacity="0.25"/>
<rect x="0" y="9"  width="160" height="1" fill="#000" opacity="0.25"/>
<rect x="0" y="11" width="160" height="1" fill="#000" opacity="0.25"/>
<rect x="0" y="13" width="160" height="1" fill="#000" opacity="0.25"/>
<rect x="0" y="15" width="160" height="1" fill="#000" opacity="0.25"/>
<rect x="0" y="17" width="160" height="1" fill="#000" opacity="0.25"/>
<rect x="0" y="19" width="160" height="1" fill="#000" opacity="0.25"/>
<rect x="0" y="21" width="160" height="1" fill="#000" opacity="0.25"/>
<rect x="0" y="23" width="160" height="1" fill="#000" opacity="0.25"/>
<rect x="0" y="25" width="160" height="1" fill="#000" opacity="0.25"/>
<rect x="0" y="27" width="160" height="1" fill="#000" opacity="0.25"/>
<rect x="0" y="29" width="160" height="1" fill="#000" opacity="0.25"/>
<rect x="0" y="31" width="160" height="1" fill="#000" opacity="0.25"/>
<rect x="0" y="33" width="160" height="1" fill="#000" opacity="0.25"/>
<rect x="0" y="35" width="160" height="1" fill="#000" opacity="0.25"/>
<rect x="0" y="37" width="160" height="1" fill="#000" opacity="0.25"/>
<rect x="0" y="39" width="160" height="1" fill="#000" opacity="0.25"/>
<rect x="0" y="41" width="160" height="1" fill="#000" opacity="0.25"/>
<rect x="0" y="43" width="160" height="1" fill="#000" opacity="0.25"/>
<rect x="0" y="45" width="160" height="1" fill="#000" opacity="0.25"/>
<rect x="0" y="47" width="160" height="1" fill="#000" opacity="0.25"/>
<rect x="0" y="49" width="160" height="1" fill="#000" opacity="0.25"/>
<rect x="0" y="51" width="160" height="1" fill="#000" opacity="0.25"/>
<rect x="0" y="53" width="160" height="1" fill="#000" opacity="0.25"/>
<rect x="0" y="55" width="160" height="1" fill="#000" opacity="0.25"/>
<rect x="0" y="57" width="160" height="1" fill="#000" opacity="0.25"/>
<rect x="0" y="59" width="160" height="1" fill="#000" opacity="0.25"/>
<rect x="0" y="61" width="160" height="1" fill="#000" opacity="0.25"/>
<rect x="0" y="63" width="160" height="1" fill="#000" opacity="0.25"/>
<rect x="0" y="65" width="160" height="1" fill="#000" opacity="0.25"/>
<rect x="0" y="67" width="160" height="1" fill="#000" opacity="0.25"/>
<rect x="0" y="69" width="160" height="1" fill="#000" opacity="0.25"/>
<rect x="0" y="71" width="160" height="1" fill="#000" opacity="0.25"/>
<rect x="0" y="73" width="160" height="1" fill="#000" opacity="0.25"/>
<rect x="0" y="75" width="160" height="1" fill="#000" opacity="0.25"/>
<rect x="0" y="77" width="160" height="1" fill="#000" opacity="0.25"/>
<rect x="0" y="79" width="160" height="1" fill="#000" opacity="0.25"/>
<rect x="0" y="81" width="160" height="1" fill="#000" opacity="0.25"/>
<rect x="0" y="83" width="160" height="1" fill="#000" opacity="0.25"/>
<rect x="0" y="85" width="160" height="1" fill="#000" opacity="0.25"/>
<rect x="0" y="87" width="160" height="1" fill="#000" opacity="0.25"/>
<rect x="0" y="89" width="160" height="1" fill="#000" opacity="0.25"/>
<rect x="0" y="91" width="160" height="1" fill="#000" opacity="0.25"/>
<rect x="0" y="93" width="160" height="1" fill="#000" opacity="0.25"/>
<rect x="0" y="95" width="160" height="1" fill="#000" opacity="0.25"/>
<rect x="0" y="97" width="160" height="1" fill="#000" opacity="0.25"/>
<rect x="0" y="99" width="160" height="1" fill="#000" opacity="0.25"/>
<rect x="0" y="101" width="160" height="1" fill="#000" opacity="0.25"/>
<rect x="0" y="103" width="160" height="1" fill="#000" opacity="0.25"/>
<rect x="0" y="105" width="160" height="1" fill="#000" opacity="0.25"/>
<rect x="0" y="107" width="160" height="1" fill="#000" opacity="0.25"/>
<rect x="0" y="109" width="160" height="1" fill="#000" opacity="0.25"/>
<rect x="0" y="111" width="160" height="1" fill="#000" opacity="0.25"/>
<rect x="0" y="113" width="160" height="1" fill="#000" opacity="0.25"/>
<rect x="0" y="115" width="160" height="1" fill="#000" opacity="0.25"/>
<rect x="0" y="117" width="160" height="1" fill="#000" opacity="0.25"/>
<rect x="0" y="119" width="160" height="1" fill="#000" opacity="0.25"/>
<rect x="0" y="121" width="160" height="1" fill="#000" opacity="0.25"/>
<rect x="0" y="123" width="160" height="1" fill="#000" opacity="0.25"/>
<rect x="0" y="125" width="160" height="1" fill="#000" opacity="0.25"/>
<rect x="0" y="127" width="160" height="1" fill="#000" opacity="0.25"/>
<rect x="0" y="129" width="160" height="1" fill="#000" opacity="0.25"/>
<rect x="0" y="131" width="160" height="1" fill="#000" opacity="0.25"/>
<rect x="0" y="133" width="160" height="1" fill="#000" opacity="0.25"/>
<rect x="0" y="135" width="160" height="1" fill="#000" opacity="0.25"/>
<rect x="0" y="137" width="160" height="1" fill="#000" opacity="0.25"/>
<rect x="0" y="139" width="160" height="1" fill="#000" opacity="0.25"/>
<rect x="0" y="141" width="160" height="1" fill="#000" opacity="0.25"/>
<rect x="0" y="143" width="160" height="1" fill="#000" opacity="0.25"/>
<rect x="0" y="145" width="160" height="1" fill="#000" opacity="0.25"/>
<rect x="0" y="147" width="160" height="1" fill="#000" opacity="0.25"/>
<rect x="0" y="149" width="160" height="1" fill="#000" opacity="0.25"/>
<rect x="0" y="151" width="160" height="1" fill="#000" opacity="0.25"/>
<rect x="0" y="153" width="160" height="1" fill="#000" opacity="0.25"/>
<rect x="0" y="155" width="160" height="1" fill="#000" opacity="0.25"/>
<rect x="0" y="157" width="160" height="1" fill="#000" opacity="0.25"/>
<rect x="0" y="159" width="160" height="1" fill="#000" opacity="0.25"/>

<!-- ── PIXEL STARS ── -->
<rect x="4"   y="4"  width="1" height="1" fill="#fbbf24"/>
<rect x="12"  y="2"  width="2" height="2" fill="#fbbf24" filter="url(#ga)"/>
<rect x="22"  y="6"  width="1" height="1" fill="#a855f7"/>
<rect x="35"  y="3"  width="1" height="1" fill="#00e5ff"/>
<rect x="48"  y="8"  width="2" height="2" fill="#fff" opacity="0.4"/>
<rect x="60"  y="2"  width="1" height="1" fill="#fbbf24"/>
<rect x="72"  y="7"  width="1" height="1" fill="#a855f7"/>
<rect x="84"  y="4"  width="2" height="2" fill="#fbbf24" filter="url(#ga)"/>
<rect x="96"  y="9"  width="1" height="1" fill="#00e5ff"/>
<rect x="108" y="3"  width="1" height="1" fill="#fff" opacity="0.5"/>
<rect x="120" y="7"  width="2" height="2" fill="#a855f7" filter="url(#gp)"/>
<rect x="132" y="2"  width="1" height="1" fill="#fbbf24"/>
<rect x="144" y="6"  width="1" height="1" fill="#00e5ff"/>
<rect x="156" y="3"  width="1" height="1" fill="#fbbf24"/>
<rect x="8"   y="14" width="1" height="1" fill="#a855f7"/>
<rect x="20"  y="16" width="1" height="1" fill="#fbbf24" opacity="0.7"/>
<rect x="45"  y="12" width="1" height="1" fill="#00e5ff"/>
<rect x="70"  y="15" width="1" height="1" fill="#fff" opacity="0.4"/>
<rect x="95"  y="11" width="1" height="1" fill="#fbbf24"/>
<rect x="118" y="14" width="1" height="1" fill="#a855f7" opacity="0.7"/>
<rect x="143" y="13" width="2" height="2" fill="#fbbf24" filter="url(#ga)"/>
<rect x="155" y="11" width="1" height="1" fill="#00e5ff"/>

<!-- ── LANTERN GLOW POOL (behind bard) ── -->
<rect x="62" y="18" width="36" height="36" fill="#fbbf24" opacity="0.05"/>
<rect x="66" y="22" width="28" height="28" fill="#fbbf24" opacity="0.06"/>
<rect x="70" y="26" width="20" height="20" fill="#fbbf24" opacity="0.08"/>

<!-- ── LANTERN (x=75,y=14) ── -->
<rect x="76" y="14" width="8"  height="12" fill="#fbbf24" filter="url(#ga)"/>
<rect x="77" y="15" width="6"  height="10" fill="#fff8dc"/>
<rect x="78" y="16" width="4"  height="8"  fill="#fff" opacity="0.9"/>
<rect x="79" y="12" width="2"  height="3"  fill="#d97706"/>
<!-- lantern hook top -->
<rect x="79" y="10" width="2" height="3"  fill="#92400e"/>
<!-- Lantern frame bars -->
<rect x="76" y="14" width="1" height="12" fill="#d97706"/>
<rect x="83" y="14" width="1" height="12" fill="#d97706"/>
<!-- Lantern light rays — cardinal + diagonal -->
<rect x="70" y="19" width="5"  height="1" fill="#fbbf24" opacity="0.8" filter="url(#ga)"/>
<rect x="85" y="19" width="5"  height="1" fill="#fbbf24" opacity="0.8" filter="url(#ga)"/>
<rect x="80" y="9"  width="1"  height="4" fill="#fbbf24" opacity="0.7"/>
<rect x="80" y="27" width="1"  height="5" fill="#fbbf24" opacity="0.6"/>
<rect x="68" y="15" width="3"  height="2" fill="#fbbf24" opacity="0.5"/>
<rect x="89" y="15" width="3"  height="2" fill="#fbbf24" opacity="0.5"/>
<rect x="68" y="23" width="3"  height="2" fill="#fbbf24" opacity="0.4"/>
<rect x="89" y="23" width="3"  height="2" fill="#fbbf24" opacity="0.4"/>
<!-- Extended soft rays -->
<rect x="64" y="18" width="4" height="1" fill="#fbbf24" opacity="0.25"/>
<rect x="92" y="18" width="4" height="1" fill="#fbbf24" opacity="0.25"/>
<rect x="64" y="22" width="3" height="1" fill="#fbbf24" opacity="0.15"/>
<rect x="93" y="22" width="3" height="1" fill="#fbbf24" opacity="0.15"/>

<!-- ── BARD HAT ── -->
<!-- brim -->
<rect x="68" y="36" width="24" height="4" fill="#6d28d9"/>
<!-- shaft -->
<rect x="72" y="28" width="16" height="9" fill="#7c3aed"/>
<!-- tip -->
<rect x="76" y="22" width="8"  height="7" fill="#8b5cf6"/>
<!-- tip top -->
<rect x="78" y="18" width="4"  height="5" fill="#a78bfa"/>
<!-- hat star — at top -->
<rect x="78" y="14" width="4" height="4" fill="#fbbf24" filter="url(#ga)"/>
<rect x="77" y="15" width="6" height="2" fill="#fbbf24" filter="url(#ga)"/>
<rect x="80" y="12" width="1" height="6" fill="#fbbf24" filter="url(#ga)"/>
<!-- Hat band detail -->
<rect x="68" y="35" width="24" height="1" fill="#fbbf24" opacity="0.3"/>

<!-- ── BARD HEAD ── -->
<rect x="70" y="40" width="20" height="16" fill="#f0d0a8"/>
<!-- cheeks blush -->
<rect x="70" y="46" width="3" height="2" fill="#e8a090" opacity="0.5"/>
<rect x="87" y="46" width="3" height="2" fill="#e8a090" opacity="0.5"/>
<!-- Eyes -->
<rect x="73" y="44" width="4" height="4" fill="#7c3aed"/>
<rect x="83" y="44" width="4" height="4" fill="#7c3aed"/>
<!-- Pupils / shine -->
<rect x="74" y="45" width="2" height="2" fill="#150030"/>
<rect x="84" y="45" width="2" height="2" fill="#150030"/>
<rect x="74" y="45" width="1" height="1" fill="#fff" opacity="0.9"/>
<rect x="84" y="45" width="1" height="1" fill="#fff" opacity="0.9"/>
<!-- Eyebrows -->
<rect x="73" y="42" width="4" height="1" fill="#a07040"/>
<rect x="83" y="42" width="4" height="1" fill="#a07040"/>
<!-- Mouth — smile -->
<rect x="74" y="52" width="12" height="2" fill="#c08060"/>
<rect x="72" y="51" width="2"  height="2" fill="#c08060"/>
<rect x="86" y="51" width="2"  height="2" fill="#c08060"/>
<rect x="74" y="53" width="2"  height="1" fill="#a06040"/>
<rect x="84" y="53" width="2"  height="1" fill="#a06040"/>
<!-- Nose -->
<rect x="79" y="49" width="2" height="2" fill="#c8a080"/>

<!-- ── BARD BODY (cloak) ── -->
<rect x="64" y="56" width="32" height="28" fill="#7c3aed"/>
<rect x="66" y="58" width="28" height="24" fill="#6d28d9"/>
<!-- Cloak detail — vertical lines -->
<rect x="70" y="60" width="2" height="20" fill="#8b5cf6" opacity="0.35"/>
<rect x="88" y="60" width="2" height="20" fill="#8b5cf6" opacity="0.35"/>
<rect x="79" y="60" width="1" height="20" fill="#8b5cf6" opacity="0.2"/>
<!-- Cloak shoulder fold -->
<rect x="64" y="56" width="4" height="4" fill="#8b5cf6" opacity="0.6"/>
<rect x="92" y="56" width="4" height="4" fill="#8b5cf6" opacity="0.6"/>
<!-- Cloak belt -->
<rect x="66" y="72" width="28" height="3" fill="#fbbf24" opacity="0.35"/>
<rect x="79" y="72" width="2"  height="3" fill="#fbbf24" opacity="0.6"/>

<!-- ── RIGHT ARM (raised, holding lantern) ── -->
<rect x="94" y="60" width="4"  height="4" fill="#e8c090"/>
<rect x="96" y="56" width="4"  height="6" fill="#e8c090"/>
<rect x="98" y="50" width="4"  height="8" fill="#e8c090"/>
<!-- wrist/hand near lantern -->
<rect x="98" y="24" width="4"  height="4" fill="#e8c090"/>
<rect x="98" y="26" width="4"  height="28" fill="#6d28d9" opacity="0.8"/>
<rect x="99" y="26" width="2"  height="28" fill="#e8c090"/>

<!-- ── LEFT ARM ── -->
<rect x="62" y="60" width="4" height="4" fill="#e8c090"/>
<rect x="58" y="64" width="5" height="4" fill="#e8c090"/>
<rect x="55" y="68" width="4" height="4" fill="#e8c090"/>

<!-- ── LEGS ── -->
<rect x="70" y="84" width="8"  height="12" fill="#4c1d95"/>
<rect x="82" y="84" width="8"  height="12" fill="#4c1d95"/>
<!-- knees -->
<rect x="70" y="90" width="8"  height="2"  fill="#3b0764" opacity="0.5"/>
<rect x="82" y="90" width="8"  height="2"  fill="#3b0764" opacity="0.5"/>
<!-- boots -->
<rect x="68" y="95" width="12" height="4" fill="#1e1b4b"/>
<rect x="80" y="95" width="12" height="4" fill="#1e1b4b"/>
<!-- boot highlight -->
<rect x="69" y="96" width="3" height="1" fill="#3730a3" opacity="0.5"/>
<rect x="81" y="96" width="3" height="1" fill="#3730a3" opacity="0.5"/>

<!-- ── GROUND ── -->
<rect x="0"   y="102" width="160" height="10" fill="#150030"/>
<rect x="0"   y="102" width="160" height="2"  fill="#7c3aed" opacity="0.5"/>
<!-- Ground pixel tiles -->
<rect x="0"   y="104" width="20" height="8" fill="#0e001f"/>
<rect x="20"  y="104" width="20" height="8" fill="#120028"/>
<rect x="40"  y="104" width="20" height="8" fill="#0e001f"/>
<rect x="60"  y="104" width="20" height="8" fill="#120028"/>
<rect x="80"  y="104" width="20" height="8" fill="#0e001f"/>
<rect x="100" y="104" width="20" height="8" fill="#120028"/>
<rect x="120" y="104" width="20" height="8" fill="#0e001f"/>
<rect x="140" y="104" width="20" height="8" fill="#120028"/>
<!-- Ground tile borders -->
<rect x="20"  y="104" width="1" height="8" fill="#7c3aed" opacity="0.2"/>
<rect x="40"  y="104" width="1" height="8" fill="#7c3aed" opacity="0.2"/>
<rect x="60"  y="104" width="1" height="8" fill="#7c3aed" opacity="0.2"/>
<rect x="80"  y="104" width="1" height="8" fill="#7c3aed" opacity="0.2"/>
<rect x="100" y="104" width="1" height="8" fill="#7c3aed" opacity="0.2"/>
<rect x="120" y="104" width="1" height="8" fill="#7c3aed" opacity="0.2"/>
<rect x="140" y="104" width="1" height="8" fill="#7c3aed" opacity="0.2"/>

<!-- ── BOT COMPANIONS ── -->
<!-- Bot LEFT-FAR (amber, x=10, y=62) -->
<rect x="10" y="62" width="16" height="14" fill="#0e001f"/>
<rect x="11" y="63" width="14" height="12" fill="#07000f"/>
<rect x="10" y="62" width="16" height="1"  fill="#fbbf24"/>
<rect x="10" y="75" width="16" height="1"  fill="#fbbf24"/>
<rect x="10" y="62" width="1"  height="14" fill="#fbbf24"/>
<rect x="25" y="62" width="1"  height="14" fill="#fbbf24"/>
<rect x="12" y="64" width="5"  height="4"  fill="#fbbf24" filter="url(#ga)"/>
<rect x="19" y="64" width="5"  height="4"  fill="#fbbf24" filter="url(#ga)"/>
<rect x="13" y="70" width="10" height="2"  fill="#fbbf24" opacity="0.4"/>
<!-- Bot antenna -->
<rect x="17" y="59" width="2" height="4" fill="#fbbf24"/>
<rect x="15" y="57" width="6" height="2" fill="#fbbf24" filter="url(#ga)"/>
<!-- Bot legs -->
<rect x="12" y="76" width="4" height="6" fill="#150030"/>
<rect x="19" y="76" width="4" height="6" fill="#150030"/>
<rect x="11" y="81" width="6" height="2" fill="#0e001f"/>
<rect x="18" y="81" width="6" height="2" fill="#0e001f"/>

<!-- Bot LEFT-CLOSE (purple, x=30, y=70) -->
<rect x="30" y="70" width="16" height="14" fill="#0e001f"/>
<rect x="31" y="71" width="14" height="12" fill="#07000f"/>
<rect x="30" y="70" width="16" height="1"  fill="#a855f7"/>
<rect x="30" y="83" width="16" height="1"  fill="#a855f7"/>
<rect x="30" y="70" width="1"  height="14" fill="#a855f7"/>
<rect x="45" y="70" width="1"  height="14" fill="#a855f7"/>
<rect x="32" y="72" width="5"  height="4"  fill="#a855f7" filter="url(#gp)"/>
<rect x="39" y="72" width="5"  height="4"  fill="#a855f7" filter="url(#gp)"/>
<rect x="33" y="78" width="9"  height="2"  fill="#a855f7" opacity="0.4"/>
<rect x="37" y="67" width="2"  height="4"  fill="#a855f7"/>
<rect x="35" y="65" width="6"  height="2"  fill="#a855f7" filter="url(#gp)"/>
<rect x="32" y="84" width="4"  height="5"  fill="#150030"/>
<rect x="39" y="84" width="4"  height="5"  fill="#150030"/>
<rect x="31" y="88" width="6"  height="2"  fill="#0e001f"/>
<rect x="38" y="88" width="6"  height="2"  fill="#0e001f"/>

<!-- Bot RIGHT-CLOSE (cyan, x=114, y=70) -->
<rect x="114" y="70" width="16" height="14" fill="#0e001f"/>
<rect x="115" y="71" width="14" height="12" fill="#07000f"/>
<rect x="114" y="70" width="16" height="1"  fill="#00e5ff"/>
<rect x="114" y="83" width="16" height="1"  fill="#00e5ff"/>
<rect x="114" y="70" width="1"  height="14" fill="#00e5ff"/>
<rect x="129" y="70" width="1"  height="14" fill="#00e5ff"/>
<rect x="116" y="72" width="5"  height="4"  fill="#00e5ff" filter="url(#gc)"/>
<rect x="123" y="72" width="5"  height="4"  fill="#00e5ff" filter="url(#gc)"/>
<rect x="117" y="78" width="9"  height="2"  fill="#00e5ff" opacity="0.4"/>
<rect x="121" y="67" width="2"  height="4"  fill="#00e5ff"/>
<rect x="119" y="65" width="6"  height="2"  fill="#00e5ff" filter="url(#gc)"/>
<rect x="116" y="84" width="4"  height="5"  fill="#150030"/>
<rect x="123" y="84" width="4"  height="5"  fill="#150030"/>
<rect x="115" y="88" width="6"  height="2"  fill="#0e001f"/>
<rect x="122" y="88" width="6"  height="2"  fill="#0e001f"/>

<!-- Bot RIGHT-FAR (pink, x=134, y=62) -->
<rect x="134" y="62" width="16" height="14" fill="#0e001f"/>
<rect x="135" y="63" width="14" height="12" fill="#07000f"/>
<rect x="134" y="62" width="16" height="1"  fill="#ff00aa"/>
<rect x="134" y="75" width="16" height="1"  fill="#ff00aa"/>
<rect x="134" y="62" width="1"  height="14" fill="#ff00aa"/>
<rect x="149" y="62" width="1"  height="14" fill="#ff00aa"/>
<rect x="136" y="64" width="5"  height="4"  fill="#ff00aa" opacity="0.9"/>
<rect x="143" y="64" width="5"  height="4"  fill="#ff00aa" opacity="0.9"/>
<rect x="137" y="70" width="9"  height="2"  fill="#ff00aa" opacity="0.4"/>
<rect x="141" y="59" width="2"  height="4"  fill="#ff00aa"/>
<rect x="139" y="57" width="6"  height="2"  fill="#ff00aa" opacity="0.9"/>
<rect x="136" y="76" width="4"  height="5"  fill="#150030"/>
<rect x="143" y="76" width="4"  height="5"  fill="#150030"/>
<rect x="135" y="80" width="6"  height="2"  fill="#0e001f"/>
<rect x="142" y="80" width="6"  height="2"  fill="#0e001f"/>

<!-- ── CONNECTION LINES (thin, subtle) ── -->
<rect x="46" y="77" width="18" height="1" fill="#7c3aed" opacity="0.3"/>
<rect x="112" y="77" width="2"  height="1" fill="#7c3aed" opacity="0.3"/>
<!-- diagonal pixel line from bard to left bot -->
<rect x="58" y="77" width="6"  height="1" fill="#7c3aed" opacity="0.2"/>
<rect x="104" y="77" width="10" height="1" fill="#7c3aed" opacity="0.2"/>

<!-- ── TITLE PANEL (bottom, y=112..148) ── -->
<rect x="0" y="112" width="160" height="36" fill="#07000f"/>
<rect x="2" y="114" width="156" height="32" fill="#0e001f"/>
<rect x="2" y="114" width="156" height="2"  fill="#7c3aed" opacity="0.5"/>

<!-- "THEBARDCHAT" chunky pixel letters centered at y=118..128 -->
<!-- T -->
<rect x="4"  y="118" width="8" height="2" fill="#fbbf24" filter="url(#ga)"/>
<rect x="7"  y="118" width="2" height="8" fill="#fbbf24" filter="url(#ga)"/>
<!-- H -->
<rect x="14" y="118" width="2" height="8" fill="#fbbf24" filter="url(#ga)"/>
<rect x="14" y="121" width="5" height="2" fill="#fbbf24" filter="url(#ga)"/>
<rect x="17" y="118" width="2" height="8" fill="#fbbf24" filter="url(#ga)"/>
<!-- E -->
<rect x="21" y="118" width="2" height="8" fill="#fbbf24" filter="url(#ga)"/>
<rect x="21" y="118" width="6" height="2" fill="#fbbf24" filter="url(#ga)"/>
<rect x="21" y="121" width="4" height="2" fill="#fbbf24" filter="url(#ga)"/>
<rect x="21" y="124" width="6" height="2" fill="#fbbf24" filter="url(#ga)"/>
<!-- B -->
<rect x="29" y="118" width="2" height="8" fill="#a855f7" filter="url(#gp)"/>
<rect x="29" y="118" width="4" height="2" fill="#a855f7" filter="url(#gp)"/>
<rect x="31" y="120" width="2" height="2" fill="#a855f7" filter="url(#gp)"/>
<rect x="29" y="121" width="4" height="2" fill="#a855f7" filter="url(#gp)"/>
<rect x="31" y="123" width="2" height="2" fill="#a855f7" filter="url(#gp)"/>
<rect x="29" y="124" width="4" height="2" fill="#a855f7" filter="url(#gp)"/>
<!-- A -->
<rect x="35" y="120" width="2" height="6" fill="#a855f7" filter="url(#gp)"/>
<rect x="35" y="118" width="6" height="2" fill="#a855f7" filter="url(#gp)"/>
<rect x="39" y="120" width="2" height="6" fill="#a855f7" filter="url(#gp)"/>
<rect x="35" y="121" width="6" height="2" fill="#a855f7" filter="url(#gp)"/>
<!-- R -->
<rect x="43" y="118" width="2" height="8" fill="#a855f7" filter="url(#gp)"/>
<rect x="43" y="118" width="4" height="2" fill="#a855f7" filter="url(#gp)"/>
<rect x="45" y="120" width="2" height="2" fill="#a855f7" filter="url(#gp)"/>
<rect x="43" y="121" width="4" height="2" fill="#a855f7" filter="url(#gp)"/>
<rect x="44" y="122" width="3" height="4" fill="#a855f7" filter="url(#gp)"/>
<!-- D -->
<rect x="49" y="118" width="2" height="8" fill="#a855f7" filter="url(#gp)"/>
<rect x="49" y="118" width="4" height="2" fill="#a855f7" filter="url(#gp)"/>
<rect x="51" y="120" width="2" height="4" fill="#a855f7" filter="url(#gp)"/>
<rect x="49" y="124" width="4" height="2" fill="#a855f7" filter="url(#gp)"/>
<!-- C -->
<rect x="55" y="118" width="2" height="8" fill="#fbbf24" filter="url(#ga)"/>
<rect x="55" y="118" width="6" height="2" fill="#fbbf24" filter="url(#ga)"/>
<rect x="55" y="124" width="6" height="2" fill="#fbbf24" filter="url(#ga)"/>
<!-- H -->
<rect x="63" y="118" width="2" height="8" fill="#fbbf24" filter="url(#ga)"/>
<rect x="63" y="121" width="5" height="2" fill="#fbbf24" filter="url(#ga)"/>
<rect x="66" y="118" width="2" height="8" fill="#fbbf24" filter="url(#ga)"/>
<!-- A -->
<rect x="70" y="120" width="2" height="6" fill="#fbbf24" filter="url(#ga)"/>
<rect x="70" y="118" width="6" height="2" fill="#fbbf24" filter="url(#ga)"/>
<rect x="74" y="120" width="2" height="6" fill="#fbbf24" filter="url(#ga)"/>
<rect x="70" y="121" width="6" height="2" fill="#fbbf24" filter="url(#ga)"/>
<!-- T -->
<rect x="78" y="118" width="8" height="2" fill="#fbbf24" filter="url(#ga)"/>
<rect x="81" y="118" width="2" height="8" fill="#fbbf24" filter="url(#ga)"/>

<!-- Small pixel sub-text: LOVE · LIGHT · LOCAL AI -->
<rect x="4"  y="132" width="152" height="1" fill="#00e5ff" opacity="0.15"/>
<!-- L·O·V·E dots -->
<rect x="28" y="134" width="1" height="4" fill="#00e5ff" opacity="0.9"/>
<rect x="28" y="137" width="3" height="1" fill="#00e5ff" opacity="0.9"/>
<rect x="33" y="134" width="3" height="1" fill="#00e5ff" opacity="0.9"/>
<rect x="33" y="134" width="1" height="4" fill="#00e5ff" opacity="0.9"/>
<rect x="35" y="134" width="1" height="4" fill="#00e5ff" opacity="0.9"/>
<rect x="33" y="137" width="3" height="1" fill="#00e5ff" opacity="0.9"/>
<rect x="38" y="134" width="1" height="3" fill="#00e5ff" opacity="0.9"/>
<rect x="40" y="134" width="1" height="3" fill="#00e5ff" opacity="0.9"/>
<rect x="39" y="136" width="1" height="2" fill="#00e5ff" opacity="0.9"/>
<rect x="43" y="134" width="1" height="4" fill="#00e5ff" opacity="0.9"/>
<rect x="43" y="134" width="3" height="1" fill="#00e5ff" opacity="0.9"/>
<rect x="43" y="136" width="2" height="1" fill="#00e5ff" opacity="0.9"/>
<rect x="43" y="137" width="3" height="1" fill="#00e5ff" opacity="0.9"/>
<!-- dot -->
<rect x="48" y="137" width="1" height="1" fill="#fbbf24"/>
<!-- LIGHT dots (amber) -->
<rect x="51" y="134" width="1" height="4" fill="#fbbf24" opacity="0.9"/>
<rect x="51" y="137" width="3" height="1" fill="#fbbf24" opacity="0.9"/>
<rect x="55" y="134" width="3" height="1" fill="#fbbf24" opacity="0.9"/>
<rect x="56" y="134" width="1" height="4" fill="#fbbf24" opacity="0.9"/>
<rect x="55" y="137" width="3" height="1" fill="#fbbf24" opacity="0.9"/>
<rect x="60" y="134" width="3" height="1" fill="#fbbf24" opacity="0.9"/>
<rect x="60" y="134" width="1" height="4" fill="#fbbf24" opacity="0.9"/>
<rect x="60" y="137" width="3" height="1" fill="#fbbf24" opacity="0.9"/>
<rect x="62" y="136" width="1" height="2" fill="#fbbf24" opacity="0.9"/>
<rect x="61" y="136" width="2" height="1" fill="#fbbf24" opacity="0.9"/>
<rect x="65" y="134" width="1" height="4" fill="#fbbf24" opacity="0.9"/>
<rect x="65" y="136" width="3" height="1" fill="#fbbf24" opacity="0.9"/>
<rect x="67" y="134" width="1" height="4" fill="#fbbf24" opacity="0.9"/>
<rect x="71" y="134" width="3" height="1" fill="#fbbf24" opacity="0.9"/>
<rect x="72" y="134" width="1" height="4" fill="#fbbf24" opacity="0.9"/>
<!-- dot -->
<rect x="76" y="137" width="1" height="1" fill="#a855f7"/>
<!-- LOCAL AI (purple) -->
<rect x="79" y="134" width="1" height="4" fill="#a855f7" opacity="0.9"/>
<rect x="79" y="137" width="3" height="1" fill="#a855f7" opacity="0.9"/>
<rect x="84" y="134" width="3" height="1" fill="#a855f7" opacity="0.9"/>
<rect x="84" y="134" width="1" height="4" fill="#a855f7" opacity="0.9"/>
<rect x="86" y="134" width="1" height="4" fill="#a855f7" opacity="0.9"/>
<rect x="84" y="137" width="3" height="1" fill="#a855f7" opacity="0.9"/>
<rect x="89" y="134" width="3" height="1" fill="#a855f7" opacity="0.9"/>
<rect x="89" y="134" width="1" height="4" fill="#a855f7" opacity="0.9"/>
<rect x="89" y="137" width="3" height="1" fill="#a855f7" opacity="0.9"/>
<rect x="94" y="134" width="1" height="4" fill="#a855f7" opacity="0.9"/>
<rect x="94" y="136" width="3" height="1" fill="#a855f7" opacity="0.9"/>
<rect x="96" y="134" width="1" height="4" fill="#a855f7" opacity="0.9"/>
<rect x="100" y="134" width="3" height="1" fill="#a855f7" opacity="0.9"/>
<rect x="101" y="134" width="1" height="4" fill="#a855f7" opacity="0.9"/>
<rect x="105" y="134" width="1" height="4" fill="#a855f7" opacity="0.9"/>
<rect x="107" y="134" width="1" height="4" fill="#a855f7" opacity="0.9"/>
<rect x="105" y="134" width="3" height="1" fill="#a855f7" opacity="0.9"/>

<!-- Bottom rainbow stripe -->
<rect x="0"   y="148" width="40"  height="4" fill="#fbbf24"/>
<rect x="40"  y="148" width="40"  height="4" fill="#a855f7"/>
<rect x="80"  y="148" width="40"  height="4" fill="#00e5ff"/>
<rect x="120" y="148" width="40"  height="4" fill="#ff00aa"/>
<rect x="0"   y="152" width="160" height="8" fill="#07000f"/>

<!-- twitch.tv tag pixels -->
<rect x="48" y="154" width="1" height="4" fill="#fbbf24" opacity="0.6"/>
<rect x="48" y="154" width="6" height="1" fill="#fbbf24" opacity="0.6"/>
<rect x="51" y="154" width="1" height="4" fill="#fbbf24" opacity="0.6"/>
<rect x="58" y="155" width="1" height="4" fill="#fbbf24" opacity="0.6"/>
<rect x="58" y="155" width="3" height="1" fill="#fbbf24" opacity="0.6"/>
<rect x="60" y="155" width="1" height="4" fill="#fbbf24" opacity="0.6"/>
<rect x="58" y="158" width="3" height="1" fill="#fbbf24" opacity="0.6"/>
<rect x="64" y="154" width="4" height="1" fill="#9146ff" opacity="0.8"/>
<rect x="64" y="154" width="1" height="5" fill="#9146ff" opacity="0.8"/>
<rect x="64" y="158" width="4" height="1" fill="#9146ff" opacity="0.8"/>
<rect x="66" y="157" width="2" height="1" fill="#9146ff" opacity="0.8"/>

<!-- CRT border -->
<rect x="0" y="0"   width="160" height="2" fill="#7c3aed" opacity="0.7"/>
<rect x="0" y="158" width="160" height="2" fill="#7c3aed" opacity="0.7"/>
<rect x="0" y="0"   width="2"   height="160" fill="#7c3aed" opacity="0.7"/>
<rect x="158" y="0" width="2"   height="160" fill="#7c3aed" opacity="0.7"/>
<!-- corner darken -->
<rect x="0" y="0"   width="6" height="6"   fill="#000" opacity="0.7"/>
<rect x="154" y="0" width="6" height="6"   fill="#000" opacity="0.7"/>
<rect x="0" y="154" width="6" height="6"   fill="#000" opacity="0.7"/>
<rect x="154" y="154" width="6" height="6" fill="#000" opacity="0.7"/>
</svg>
